<?xml version="1.0" encoding="UTF-8" standalone="no"?>
<!-- Created with Inkscape (http://www.inkscape.org/) -->

<svg
   xmlns:dc="http://purl.org/dc/elements/1.1/"
   xmlns:cc="http://creativecommons.org/ns#"
   xmlns:rdf="http://www.w3.org/1999/02/22-rdf-syntax-ns#"
   xmlns:svg="http://www.w3.org/2000/svg"
   xmlns="http://www.w3.org/2000/svg"
   xmlns:sodipodi="http://sodipodi.sourceforge.net/DTD/sodipodi-0.dtd"
   xmlns:inkscape="http://www.inkscape.org/namespaces/inkscape"
   width="210mm"
   height="297mm"
   viewBox="0 0 210 297"
   version="1.1"
   id="svg156"
   inkscape:version="0.92.3 (2405546, 2018-03-11)"
   sodipodi:docname="Timbrado_LuBek.svg">
  <defs
     id="defs150" />
  <sodipodi:namedview
     id="base"
     pagecolor="#ffffff"
     bordercolor="#666666"
     borderopacity="1.0"
     inkscape:pageopacity="0.0"
     inkscape:pageshadow="2"
     inkscape:zoom="0.76167929"
     inkscape:cx="374.53129"
     inkscape:cy="561.25984"
     inkscape:document-units="mm"
     inkscape:current-layer="layer1"
     showgrid="false"
     inkscape:window-width="1920"
     inkscape:window-height="1011"
     inkscape:window-x="0"
     inkscape:window-y="24"
     inkscape:window-maximized="1" />
  <metadata
     id="metadata153">
    <rdf:RDF>
      <cc:Work
         rdf:about="">
        <dc:format>image/svg+xml</dc:format>
        <dc:type
           rdf:resource="http://purl.org/dc/dcmitype/StillImage" />
        <dc:title />
      </cc:Work>
    </rdf:RDF>
  </metadata>
  <g
     inkscape:label="Camada 1"
     inkscape:groupmode="layer"
     id="layer1">
    <g
       id="g4700"
       transform="matrix(0.74093453,0,0,0.75273965,141.08783,-47.944433)">
      <path
         inkscape:connector-curvature="0"
         id="path3994-6"
         d="m -176.4871,71.751138 v 5.862684 c 1.35769,0.005 2.36603,0.29796 3.01301,0.887739 0.65317,0.595338 0.97878,1.519347 0.97878,2.771143 0,1.297533 -0.3435,2.27411 -1.03229,2.930542 -0.6557,0.610313 -1.65809,0.909999 -2.9595,0.939316 v 5.404739 h 0.76846 c 1.47258,0 2.58852,0.389007 3.34858,1.167527 0.76003,0.778546 1.1405,1.922542 1.1405,3.433844 0,1.389163 -0.36258,2.419855 -1.08702,3.091542 -0.0682,0.06193 -0.18705,0.08326 -0.26263,0.139093 h 5.90198 c 0.27421,-1.102929 0.4523,-2.244514 0.4523,-3.45882 0,-1.923457 -0.36774,-3.579512 -1.10403,-4.968675 -0.7363,-1.389188 -1.74501,-2.327971 -3.02758,-2.81645 0.87881,-0.564829 1.54278,-1.396955 1.99406,-2.496051 0.45129,-1.099147 0.67726,-2.426911 0.67726,-3.984001 0,-1.877668 -0.38046,-3.518901 -1.14052,-4.923318 -0.76003,-1.404418 -1.85174,-2.481076 -3.27684,-3.229088 -0.51065,-0.274659 -1.09921,-0.465177 -1.76426,-0.57201 -0.64789,-0.119297 -1.53275,-0.17666 -2.62026,-0.179706 z"
         style="font-style:normal;font-variant:normal;font-weight:bold;font-stretch:normal;font-size:15.50524712px;line-height:1.25;font-family:'AvantGarde Bk BT';-inkscape-font-specification:'AvantGarde Bk BT Bold';letter-spacing:0px;word-spacing:0px;fill:#000000;fill-opacity:1;stroke:none;stroke-width:1.03406811" />
      <text
         transform="scale(0.71340125,1.4017357)"
         id="text3715-5-0-1-9-9"
         y="74.880844"
         x="-233.2851"
         style="font-style:normal;font-variant:normal;font-weight:bold;font-stretch:normal;font-size:32.50117493px;line-height:1.25;font-family:'AvantGarde Bk BT';-inkscape-font-specification:'AvantGarde Bk BT Bold';letter-spacing:0px;word-spacing:0px;fill:#000000;fill-opacity:1;stroke:none;stroke-width:0.81252927"
         xml:space="preserve"><tspan
           style="font-style:normal;font-variant:normal;font-weight:bold;font-stretch:normal;font-family:'AvantGarde Md BT';-inkscape-font-specification:'AvantGarde Md BT Bold';stroke-width:0.81252927"
           y="74.880844"
           x="-233.2851"
           id="tspan3713-8-49-7-6-5"
           sodipodi:role="line">D</tspan></text>
      <g
         transform="matrix(2.3529046,0,0,3.0067945,-461.25751,-315.63623)"
         id="text3715-9-5-6-5-1"
         style="font-style:normal;font-variant:normal;font-weight:bold;font-stretch:normal;font-size:15.50524712px;line-height:1.25;font-family:'AvantGarde Bk BT';-inkscape-font-specification:'AvantGarde Bk BT Bold';letter-spacing:0px;word-spacing:0px;fill:#f58634;fill-opacity:1;stroke:none;stroke-width:0.38763118"
         aria-label="L">
        <path
           sodipodi:nodetypes="ccccccc"
           inkscape:connector-curvature="0"
           id="path4001-3"
           style="font-style:normal;font-variant:normal;font-weight:bold;font-stretch:normal;font-family:'AvantGarde Bk BT';-inkscape-font-specification:'AvantGarde Bk BT Bold';fill:#f58634;fill-opacity:1;stroke-width:0.38763118"
           d="m 125.37811,139.8606 h -6.7479 v -11.02327 h 2.135 v 9.08511 h 4.6129 z" />
      </g>
    </g>
    <g
       aria-label="Lucimar Bekman Diniz"
       transform="matrix(0,-1.3885965,1.3885965,0,174.15585,-37.498134)"
       style="font-style:normal;font-variant:normal;font-weight:bold;font-stretch:normal;font-size:93.78660583px;line-height:1.25;font-family:'AvantGarde Bk BT';-inkscape-font-specification:'AvantGarde Bk BT Bold';letter-spacing:0px;word-spacing:0px;fill:#f58634;fill-opacity:0.14678901;stroke:none;stroke-width:2.34466529"
       id="text3715-5-6-0-5-9">
      <path
         d="m -231.99861,17.269358 q -1.63373,0 -2.46518,0.5543 -0.81686,0.5543 -0.81686,1.633726 0,0.991906 0.65641,1.560793 0.67099,0.5543 1.85252,0.5543 1.47328,0 2.47977,-1.050253 1.00649,-1.06484 1.00649,-2.654806 v -0.59806 z m 7.979,-1.969225 v 9.320995 h -5.26585 v -2.421416 q -1.05025,1.487858 -2.36307,2.17344 -1.31281,0.670995 -3.19452,0.670995 -2.53811,0 -4.12807,-1.473272 -1.57538,-1.487858 -1.57538,-3.850927 0,-2.873609 1.96922,-4.215599 1.98381,-1.34199 6.214,-1.34199 h 3.07782 v -0.408431 q 0,-1.239882 -0.97732,-1.808769 -0.97732,-0.583474 -3.04865,-0.583474 -1.67749,0 -3.12158,0.335497 -1.4441,0.335498 -2.68398,1.006493 V 8.7214656 q 1.67748,-0.4084317 3.36956,-0.6126476 1.69207,-0.2188027 3.38415,-0.2188027 4.41981,0 6.37445,1.7504216 1.96922,1.7358351 1.96922,5.6596961 z"
         style="font-style:normal;font-variant:normal;font-weight:bold;font-stretch:normal;font-size:29.87386131px;font-family:'AvantGarde Bk BT';-inkscape-font-specification:'AvantGarde Bk BT Bold';fill:#f58634;fill-opacity:0.14678901;stroke-width:2.34466529"
         id="path4712"
         inkscape:connector-curvature="0" />
      <path
         d="m -206.99676,12.732848 q -0.68558,-0.32091 -1.37116,-0.466779 -0.671,-0.160455 -1.35658,-0.160455 -2.01298,0 -3.107,1.298229 -1.07942,1.283643 -1.07942,3.690472 v 7.526813 h -5.22209 V 8.2838602 h 5.22209 V 10.96784 q 1.00649,-1.6045532 2.30472,-2.3338955 1.31281,-0.7439292 3.13617,-0.7439292 0.26256,0 0.56889,0.029174 0.30632,0.014587 0.88979,0.087521 z"
         style="font-style:normal;font-variant:normal;font-weight:bold;font-stretch:normal;font-size:29.87386131px;font-family:'AvantGarde Bk BT';-inkscape-font-specification:'AvantGarde Bk BT Bold';fill:#f58634;fill-opacity:0.14678901;stroke-width:2.34466529"
         id="path4714"
         inkscape:connector-curvature="0" />
      <path
         d="m -185.02897,11.274164 q 1.3274,0 2.01298,-0.583474 0.68559,-0.583474 0.68559,-1.721248 0,-1.1231872 -0.68559,-1.7066611 -0.68558,-0.5980607 -2.01298,-0.5980607 h -3.107 v 4.6094438 z m 0.18963,9.52521 q 1.69207,0 2.53811,-0.714755 0.86062,-0.714756 0.86062,-2.158853 0,-1.414924 -0.84603,-2.115093 -0.84604,-0.714756 -2.5527,-0.714756 h -3.29663 v 5.703457 z m 5.22209,-7.833136 q 1.80877,0.525126 2.80067,1.94005 0.99191,1.414925 0.99191,3.47167 0,3.150759 -2.12968,4.696964 -2.12968,1.546206 -6.47656,1.546206 h -9.321 V 2.8429665 h 8.4312 q 4.53651,0 6.56408,1.3711635 2.04216,1.3711636 2.04216,4.3906408 0,1.5899662 -0.74393,2.7131532 -0.74393,1.108601 -2.15885,1.648314 z"
         style="font-style:normal;font-variant:normal;font-weight:bold;font-stretch:normal;font-size:29.87386131px;font-family:'AvantGarde Bk BT';-inkscape-font-specification:'AvantGarde Bk BT Bold';fill:#f58634;fill-opacity:0.14678901;stroke-width:2.34466529"
         id="path4716"
         inkscape:connector-curvature="0" />
      <path
         d="m -154.92172,16.408734 v 1.487858 h -12.20919 q 0.18963,1.837943 1.3274,2.756914 1.13777,0.918971 3.17993,0.918971 1.64832,0 3.36956,-0.481366 1.73584,-0.495953 3.55919,-1.487858 v 4.02597 q -1.85252,0.700168 -3.70505,1.050252 -1.85253,0.364672 -3.70506,0.364672 -4.4344,0 -6.89958,-2.246375 -2.45059,-2.260961 -2.45059,-6.330691 0,-3.996796 2.40683,-6.286931 2.42141,-2.2901347 6.6516,-2.2901347 3.85093,0 6.15565,2.3193087 2.31931,2.319308 2.31931,6.19941 z m -5.36796,-1.735835 q 0,-1.487858 -0.87521,-2.392243 -0.86063,-0.918971 -2.26096,-0.918971 -1.51704,0 -2.46518,0.860624 -0.94815,0.846037 -1.18154,2.45059 z"
         style="font-style:normal;font-variant:normal;font-weight:bold;font-stretch:normal;font-size:29.87386131px;font-family:'AvantGarde Bk BT';-inkscape-font-specification:'AvantGarde Bk BT Bold';fill:#f58634;fill-opacity:0.14678901;stroke-width:2.34466529"
         id="path4718"
         inkscape:connector-curvature="0" />
      <path
         d="m -150.98327,1.9239952 h 5.2221 V 14.279054 l 6.00978,-5.9951938 h 6.06812 l -7.979,7.4976388 8.60624,8.839629 h -6.33069 l -6.37445,-6.812057 v 6.812057 h -5.2221 z"
         style="font-style:normal;font-variant:normal;font-weight:bold;font-stretch:normal;font-size:29.87386131px;font-family:'AvantGarde Bk BT';-inkscape-font-specification:'AvantGarde Bk BT Bold';fill:#f58634;fill-opacity:0.14678901;stroke-width:2.34466529"
         id="path4720"
         inkscape:connector-curvature="0" />
      <path
         d="m -115.94566,10.997014 q 0.9919,-1.5170324 2.34848,-2.3047221 1.37116,-0.8022766 3.00489,-0.8022766 2.81526,0 4.28853,1.7358347 1.47327,1.735835 1.47327,5.047049 v 9.948229 h -5.25126 V 16.10241 q 0.0146,-0.189629 0.0146,-0.393845 0.0146,-0.204216 0.0146,-0.583474 0,-1.735835 -0.51054,-2.508937 -0.51054,-0.78769 -1.64831,-0.78769 -1.48786,0 -2.30472,1.225295 -0.80228,1.225295 -0.83145,3.544604 v 8.022765 h -5.25127 V 16.10241 q 0,-2.713154 -0.46678,-3.486256 -0.46678,-0.78769 -1.6629,-0.78769 -1.50244,0 -2.31931,1.239882 -0.81686,1.225295 -0.81686,3.51543 v 8.037352 h -5.25127 V 8.2838602 h 5.25127 v 2.3922428 q 0.96273,-1.3857504 2.20261,-2.085919 1.25447,-0.7001687 2.75692,-0.7001687 1.69207,0 2.9903,0.8168634 1.29823,0.8168634 1.96923,2.2901353 z"
         style="font-style:normal;font-variant:normal;font-weight:bold;font-stretch:normal;font-size:29.87386131px;font-family:'AvantGarde Bk BT';-inkscape-font-specification:'AvantGarde Bk BT Bold';fill:#f58634;fill-opacity:0.14678901;stroke-width:2.34466529"
         id="path4722"
         inkscape:connector-curvature="0" />
      <path
         d="m -92.606713,17.269358 q -1.633727,0 -2.465177,0.5543 -0.816864,0.5543 -0.816864,1.633726 0,0.991906 0.656408,1.560793 0.670995,0.5543 1.85253,0.5543 1.473271,0 2.479764,-1.050253 1.006492,-1.06484 1.006492,-2.654806 v -0.59806 z m 7.979005,-1.969225 v 9.320995 h -5.265852 v -2.421416 q -1.050253,1.487858 -2.363069,2.17344 -1.312816,0.670995 -3.194519,0.670995 -2.538112,0 -4.128078,-1.473272 -1.575384,-1.487858 -1.575384,-3.850927 0,-2.873609 1.969229,-4.215599 1.983811,-1.34199 6.213997,-1.34199 h 3.077824 v -0.408431 q 0,-1.239882 -0.977319,-1.808769 -0.977318,-0.583474 -3.04865,-0.583474 -1.677488,0 -3.121586,0.335497 -1.444097,0.335498 -2.683979,1.006493 V 8.7214656 q 1.677487,-0.4084317 3.369561,-0.6126476 1.692074,-0.2188027 3.384149,-0.2188027 4.419814,0 6.374451,1.7504216 1.969225,1.7358351 1.969225,5.6596961 z"
         style="font-style:normal;font-variant:normal;font-weight:bold;font-stretch:normal;font-size:29.87386131px;font-family:'AvantGarde Bk BT';-inkscape-font-specification:'AvantGarde Bk BT Bold';fill:#f58634;fill-opacity:0.14678901;stroke-width:2.34466529"
         id="path4724"
         inkscape:connector-curvature="0" />
      <path
         d="m -63.316334,14.672899 v 9.948229 h -5.251265 v -1.61914 -5.995194 q 0,-2.115092 -0.102108,-2.917369 -0.08752,-0.802277 -0.320911,-1.181535 -0.306323,-0.510539 -0.83145,-0.787689 -0.525126,-0.291737 -1.196121,-0.291737 -1.633727,0 -2.567285,1.269055 -0.933558,1.254469 -0.933558,3.486257 v 8.037352 h -5.222091 V 8.2838602 h 5.222091 v 2.3922428 q 1.181534,-1.429511 2.508937,-2.1005059 1.327403,-0.6855818 2.931956,-0.6855818 2.829848,0 4.288533,1.7358347 1.473272,1.735835 1.473272,5.047049 z"
         style="font-style:normal;font-variant:normal;font-weight:bold;font-stretch:normal;font-size:29.87386131px;font-family:'AvantGarde Bk BT';-inkscape-font-specification:'AvantGarde Bk BT Bold';fill:#f58634;fill-opacity:0.14678901;stroke-width:2.34466529"
         id="path4726"
         inkscape:connector-curvature="0" />
      <path
         d="M -42.20915,7.0877388 V 20.376356 h 2.012984 q 3.442496,0 5.251265,-1.706661 1.823356,-1.706661 1.823356,-4.959528 0,-3.23828 -1.808769,-4.930354 -1.808769,-1.6920742 -5.265852,-1.6920742 z m -5.615936,-4.2447723 h 5.922259 q 4.959528,0 7.380945,0.7147555 2.436003,0.7001686 4.171838,2.3922428 1.531619,1.4732714 2.275548,3.3987352 0.743929,1.925464 0.743929,4.361467 0,2.465177 -0.743929,4.405228 -0.743929,1.925463 -2.275548,3.398735 -1.750422,1.692074 -4.201012,2.406829 -2.45059,0.700169 -7.351771,0.700169 h -5.922259 z"
         style="font-style:normal;font-variant:normal;font-weight:bold;font-stretch:normal;font-size:29.87386131px;font-family:'AvantGarde Bk BT';-inkscape-font-specification:'AvantGarde Bk BT Bold';fill:#f58634;fill-opacity:0.14678901;stroke-width:2.34466529"
         id="path4728"
         inkscape:connector-curvature="0" />
    </g>
    <text
       xml:space="preserve"
       style="font-style:normal;font-weight:normal;font-size:4.23333311px;line-height:1.25;font-family:sans-serif;text-align:center;letter-spacing:0px;word-spacing:0px;text-anchor:middle;fill:#000000;fill-opacity:1;stroke:none;stroke-width:0.26458332"
       x="109.82732"
       y="280.59308"
       id="text4771"><tspan
         sodipodi:role="line"
         id="tspan4769"
         x="109.82732"
         y="280.59308"
         style="font-size:4.23333311px;stroke-width:0.26458332">Engenheira Civil | Segurança do Trabalho</tspan><tspan
         sodipodi:role="line"
         x="109.82732"
         y="285.88474"
         style="font-size:3.52777767px;stroke-width:0.26458332"
         id="tspan4773">Rua Chapot Prevost, 124 - Freguesia - Ilha do Governador</tspan><tspan
         sodipodi:role="line"
         x="109.82732"
         y="291.17642"
         style="font-size:3.52777767px;stroke-width:0.26458332"
         id="tspan4775">CEP XX.XXX-XXX - (021) 99965-6412</tspan></text>
    <path
       style="fill:#f58634;fill-opacity:0.08715596;stroke:none;stroke-width:0.26458332"
       id="path4781"
       d="m -1.6392168,134.43132 c 3.6208985,-0.0871 7.2057528,-0.9073 10.7303143,-1.66876 4.8502295,-1.04787 7.5561225,-1.72271 12.4730595,-2.89491 12.255138,-2.87374 24.356695,-6.33841 36.521141,-9.56139 3.299968,-0.79556 6.594353,-1.68838 9.972968,-2.09217 1.312064,-0.1568 1.827731,-0.1584 3.139647,-0.22116 3.026582,-0.23226 5.989867,0.35908 8.858953,1.27064 2.561707,0.88137 4.547175,2.68518 6.48752,4.49956 3.353985,3.21462 6.289543,6.82456 9.19693,10.43777 0.641305,0.81245 1.289034,1.61987 1.92392,2.43735 2.425074,3.12251 1.449258,1.96979 3.895424,5.01961 1.76886,2.20537 3.5933,4.3637 5.43381,6.50917 2.97748,3.53282 6.05886,6.97216 9.17143,10.38558 4.38295,4.80428 9.51272,8.93003 15.11898,12.22936 1.58135,0.93064 3.22995,1.74198 4.84493,2.61297 9.98196,4.93029 20.79876,7.98831 31.73093,9.95697 2.22518,0.40071 4.46808,0.69582 6.70212,1.04374 9.9042,1.33307 19.89736,1.75469 29.88086,1.84082 3.09471,-0.0985 6.18035,0.1804 9.26322,0.40155 1.17537,0.0887 2.35363,0.11827 3.53192,0.1254 0,0 -4.16939,3.02046 -4.16939,3.02046 v 0 c -1.16973,-0.0252 -2.33882,-0.077 -3.50392,-0.18826 -2.99467,-0.27545 -5.99219,-0.55938 -9.00332,-0.5505 -9.85873,-0.29801 -19.7219,-0.85618 -29.50151,-2.1878 -2.23304,-0.35671 -4.47504,-0.66131 -6.69914,-1.07012 -4.64974,-0.85468 -9.01004,-1.87556 -13.56519,-3.14382 -4.63493,-1.29046 -8.37646,-2.47886 -12.81978,-4.2965 -1.88632,-0.77164 -3.71522,-1.67678 -5.57283,-2.51517 -1.63729,-0.86987 -3.30578,-1.68341 -4.91187,-2.60962 -5.69805,-3.28596 -10.98036,-7.35179 -15.49384,-12.13911 -3.14819,-3.38853 -6.22881,-6.83343 -9.15358,-10.4187 -1.82393,-2.16413 -3.631121,-4.33942 -5.389185,-6.55775 -1.342993,-1.6946 -2.575126,-3.30148 -3.897217,-5.01355 -0.642443,-0.81229 -1.304258,-1.60906 -1.956387,-2.4136 -2.934531,-3.57558 -5.892067,-7.15525 -9.312056,-10.285 -1.916938,-1.74077 -3.882051,-3.46647 -6.384213,-4.30303 -2.839617,-0.87608 -5.751486,-1.39167 -8.735875,-1.13911 -4.363328,0.25151 -8.516323,1.07826 -12.753212,2.16453 -12.095705,3.06308 -24.115847,6.41808 -36.247142,9.34249 -4.005989,0.97885 -8.6683283,2.13472 -12.7123659,3.06159 -3.2981595,0.75593 -6.7017179,1.62062 -10.0968299,1.85992 -0.407859,0.0287 -0.817738,-0.003 -1.226607,-0.004 0,0 4.227383,-2.94566 4.227383,-2.94566 z"
       inkscape:connector-curvature="0" />
    <path
       style="fill:#f58634;fill-opacity:0.08715596;stroke:none;stroke-width:0.26458332"
       id="path4783"
       d="m -12.050049,157.23444 c 3.0418759,0.0873 6.0831726,0.0265 9.1246316,-0.0353 4.4967491,-0.22618 8.9583015,-0.86011 13.4309064,-1.34328 4.687965,-0.50643 4.779376,-0.47956 9.599443,-0.86739 8.239184,-0.72702 16.493084,-1.27024 24.753415,-1.68658 2.234348,-0.11595 4.551704,-0.37488 6.670971,0.54038 0.982536,0.42433 1.209447,0.7164 2.017556,1.39626 2.067836,2.0489 3.353806,4.67033 4.606999,7.25577 0.944653,2.15984 1.921632,4.30451 3.190309,6.29804 0.87353,1.37261 1.511977,2.18182 2.489512,3.49985 1.583291,1.99662 3.228496,3.98554 5.134584,5.68897 2.570046,2.2968 5.485206,4.12088 8.38372,5.96043 6.720533,3.98949 14.192678,6.39662 21.770559,8.15104 1.871103,0.4332 3.759133,0.78972 5.638703,1.18458 6.12198,1.17704 12.28554,2.1265 18.44437,3.08692 2.09695,0.327 4.20361,0.59387 6.29413,0.9597 4.92114,0.86118 7.09317,1.44645 11.9362,2.58749 11.66362,3.01183 23.27526,6.21474 34.85424,9.53578 7.69977,2.14539 15.41337,4.26452 23.26183,5.80235 3.3155,0.64964 8.13986,1.45307 11.4845,2.02421 11.52219,1.93946 23.07751,3.65742 34.64264,5.31686 14.05351,1.94026 28.13082,3.70058 42.19276,5.57778 10.35002,1.42431 20.75611,2.3594 31.17744,3.0568 0,0 -3.75857,2.68549 -3.75857,2.68549 v 0 c -10.29372,-0.95063 -20.58381,-1.95825 -30.8316,-3.33079 -14.10658,-1.85199 -28.22679,-3.59758 -42.32853,-5.48648 -11.59499,-1.61313 -23.1785,-3.29896 -34.71744,-5.28066 -3.13052,-0.54631 -8.37204,-1.44293 -11.46631,-2.05705 -7.85295,-1.55856 -15.57519,-3.68261 -23.28492,-5.8243 -11.57022,-3.31992 -23.16843,-6.54218 -34.83033,-9.52669 -4.67367,-1.10168 -7.13409,-1.75232 -11.87905,-2.58466 -2.09261,-0.36707 -4.20192,-0.63173 -6.30122,-0.95834 -6.18131,-0.96169 -12.36644,-1.91412 -18.51655,-3.06168 -1.8964,-0.39081 -3.801197,-0.74289 -5.689208,-1.17242 -7.665556,-1.74396 -15.238002,-4.13337 -22.04498,-8.14226 -2.94064,-1.84982 -5.940705,-3.66837 -8.559453,-5.97337 -1.937602,-1.70546 -3.597661,-3.72581 -5.224243,-5.71779 -0.97055,-1.2846 -1.683845,-2.1785 -2.554785,-3.52155 -1.292701,-1.99345 -2.295107,-4.14192 -3.244802,-6.31366 -1.244423,-2.51088 -2.495566,-5.0733 -4.547769,-7.04091 -0.298591,-0.23814 -0.575588,-0.50621 -0.895771,-0.71442 -2.198142,-1.42938 -4.9383,-1.09731 -7.415964,-1.04254 -8.175495,0.27775 -16.342077,0.76707 -24.488771,1.51584 -4.847319,0.42363 -4.960851,0.39736 -9.6786882,0.94666 -4.5559519,0.53044 -9.0994547,1.21858 -13.6833002,1.47423 -3.1070812,0.10108 -6.2135126,0.13403 -9.3218866,0.16253 0,0 4.164722,-3.02585 4.164722,-3.02585 z"
       inkscape:connector-curvature="0" />
  </g>
</svg>
